HIERARCHY
ROOT hip
{
  OFFSET 0.00112043 5.09927 -9.65472
  CHANNELS 6 Xposition Yposition Zposition Zrotation Xrotation Yrotation
  JOINT abdomen
  {
    OFFSET 0 -1.186 -1.5018
    CHANNELS 3 Zrotation Xrotation Yrotation
    JOINT abdomen2
    {
      OFFSET 0 9.964 0.2134
      CHANNELS 3 Zrotation Xrotation Yrotation
      JOINT chest
      {
        OFFSET 0 13.134 -3.2573
        CHANNELS 3 Zrotation Xrotation Yrotation
        JOINT neck
        {
          OFFSET 0 20.686 -1.6905
          CHANNELS 3 Zrotation Xrotation Yrotation
          JOINT head
          {
            OFFSET 0 7.238 -0.1237
            CHANNELS 3 Zrotation Xrotation Yrotation
            End Site
            {
              OFFSET 0 0 0
            }
          }
        }
        JOINT lCollar
        {
          OFFSET 1.7069 20.075 5.0056
          CHANNELS 3 Zrotation Xrotation Yrotation
          JOINT lShldr
          {
            OFFSET 13.6458 -0.047 -4.849
            CHANNELS 3 Zrotation Xrotation Yrotation
            JOINT lForeArm
            {
              OFFSET 28.3255 -0.9759 2.2888
              CHANNELS 3 Zrotation Xrotation Yrotation
              JOINT lHand
              {
                OFFSET 22.1583 -0.53 10.8316
                CHANNELS 3 Zrotation Xrotation Yrotation
                JOINT lThumb1
                {
                  OFFSET 0.786 0.112 2.5817
                  CHANNELS 3 Zrotation Xrotation Yrotation
                  JOINT lThumb2
                  {
                    OFFSET 0.3601 -0.878 4.2331
                    CHANNELS 3 Zrotation Xrotation Yrotation
                    JOINT lThumb2_End
                    {
                      OFFSET 1.8127 -1.216 2.2227
                      CHANNELS 3 Zrotation Xrotation Yrotation
                      End Site
                      {
                        OFFSET 0.0181 -0.0122 0.0222
                      }
                    }
                  }
                }
                JOINT lCarpal1
                {
                  OFFSET 0.9571 1.114 1.7695
                  CHANNELS 3 Zrotation Xrotation Yrotation
                  JOINT lIndex1
                  {
                    OFFSET 4.1246 0.487 4.1451
                    CHANNELS 3 Zrotation Xrotation Yrotation
                    JOINT lIndex2
                    {
                      OFFSET 3.4052 -1.454 2.7682
                      CHANNELS 3 Zrotation Xrotation Yrotation
                      JOINT lIndex2_End
                      {
                        OFFSET 1.4531 -1.795 1.2713
                        CHANNELS 3 Zrotation Xrotation Yrotation
                        End Site
                        {
                          OFFSET 0.0145 -0.0179 0.0127
                        }
                      }
                    }
                  }
                  JOINT lMid1
                  {
                    OFFSET 5.6954 0.21 2.1184
                    CHANNELS 3 Zrotation Xrotation Yrotation
                    JOINT lMid2
                    {
                      OFFSET 3.9766 -1.54 2.3863
                      CHANNELS 3 Zrotation Xrotation Yrotation
                      JOINT lMid2_End
                      {
                        OFFSET 1.4042 -1.926 1.125
                        CHANNELS 3 Zrotation Xrotation Yrotation
                        End Site
                        {
                          OFFSET 0.014 -0.0193 0.0113
                        }
                      }
                    }
                  }
                }
                JOINT lCarpal2
                {
                  OFFSET 2.0956 0.66 -0.3894
                  CHANNELS 3 Zrotation Xrotation Yrotation
                  JOINT lRing1
                  {
                    OFFSET 5.0395 -0.09 2.4971
                    CHANNELS 3 Zrotation Xrotation Yrotation
                    JOINT lRing2
                    {
                      OFFSET 3.7921 -1.552 1.4806
                      CHANNELS 3 Zrotation Xrotation Yrotation
                      JOINT lRing2_End
                      {
                        OFFSET 1.4655 -1.808 0.9609
                        CHANNELS 3 Zrotation Xrotation Yrotation
                        End Site
                        {
                          OFFSET 0.0147 -0.0181 0.0096
                        }
                      }
                    }
                  }
                  JOINT lPinky1
                  {
                    OFFSET 4.9141 -1.269 0.3591
                    CHANNELS 3 Zrotation Xrotation Yrotation
                    JOINT lPinky2
                    {
                      OFFSET 3.1477 -1.685 0.8462
                      CHANNELS 3 Zrotation Xrotation Yrotation
                      JOINT lPinky2_End
                      {
                        OFFSET 0.8055 -1.585 0.7955
                        CHANNELS 3 Zrotation Xrotation Yrotation
                        End Site
                        {
                          OFFSET 0.0081 -0.0158 0.008
                        }
                      }
                    }
                  }
                }
              }
            }
          }
        }
        JOINT rCollar
        {
          OFFSET -1.7069 20.075 5.0056
          CHANNELS 3 Zrotation Xrotation Yrotation
          JOINT rShldr
          {
            OFFSET -13.6458 -0.047 -4.849
            CHANNELS 3 Zrotation Xrotation Yrotation
            JOINT rForeArm
            {
              OFFSET -28.3255 -0.9759 2.2888
              CHANNELS 3 Zrotation Xrotation Yrotation
              JOINT rHand
              {
                OFFSET -22.1583 -0.53 10.8316
                CHANNELS 3 Zrotation Xrotation Yrotation
                JOINT rThumb1
                {
                  OFFSET -0.786 0.112 2.5817
                  CHANNELS 3 Zrotation Xrotation Yrotation
                  JOINT rThumb2
                  {
                    OFFSET -0.3601 -0.878 4.2331
                    CHANNELS 3 Zrotation Xrotation Yrotation
                    JOINT rThumb2_End
                    {
                      OFFSET -1.8127 -1.216 2.2227
                      CHANNELS 3 Zrotation Xrotation Yrotation
                      End Site
                      {
                        OFFSET -0.0181 -0.0122 0.0222
                      }
                    }
                  }
                }
                JOINT rCarpal1
                {
                  OFFSET -0.9571 1.114 1.7695
                  CHANNELS 3 Zrotation Xrotation Yrotation
                  JOINT rIndex1
                  {
                    OFFSET -4.1246 0.487 4.1451
                    CHANNELS 3 Zrotation Xrotation Yrotation
                    JOINT rIndex2
                    {
                      OFFSET -3.4052 -1.454 2.7682
                      CHANNELS 3 Zrotation Xrotation Yrotation
                      JOINT rIndex2_End
                      {
                        OFFSET -1.4531 -1.795 1.2713
                        CHANNELS 3 Zrotation Xrotation Yrotation
                        End Site
                        {
                          OFFSET -0.0145 -0.018 0.0127
                        }
                      }
                    }
                  }
                  JOINT rMid1
                  {
                    OFFSET -5.6954 0.21 2.1184
                    CHANNELS 3 Zrotation Xrotation Yrotation
                    JOINT rMid2
                    {
                      OFFSET -3.9766 -1.54 2.3863
                      CHANNELS 3 Zrotation Xrotation Yrotation
                      JOINT rMid2_End
                      {
                        OFFSET -1.4042 -1.926 1.125
                        CHANNELS 3 Zrotation Xrotation Yrotation
                        End Site
                        {
                          OFFSET -0.014 -0.0193 0.0113
                        }
                      }
                    }
                  }
                }
                JOINT rCarpal2
                {
                  OFFSET -2.0956 0.66 -0.3894
                  CHANNELS 3 Zrotation Xrotation Yrotation
                  JOINT rRing1
                  {
                    OFFSET -5.0395 -0.09 2.4971
                    CHANNELS 3 Zrotation Xrotation Yrotation
                    JOINT rRing2
                    {
                      OFFSET -3.7921 -1.552 1.4806
                      CHANNELS 3 Zrotation Xrotation Yrotation
                      JOINT rRing2_End
                      {
                        OFFSET -1.4655 -1.808 0.9609
                        CHANNELS 3 Zrotation Xrotation Yrotation
                        End Site
                        {
                          OFFSET -0.0147 -0.0181 0.0096
                        }
                      }
                    }
                  }
                  JOINT rPinky1
                  {
                    OFFSET -4.9141 -1.269 0.3592
                    CHANNELS 3 Zrotation Xrotation Yrotation
                    JOINT rPinky2
                    {
                      OFFSET -3.1477 -1.685 0.8462
                      CHANNELS 3 Zrotation Xrotation Yrotation
                      JOINT rPinky2_End
                      {
                        OFFSET -0.8055 -1.585 0.7955
                        CHANNELS 3 Zrotation Xrotation Yrotation
                        End Site
                        {
                          OFFSET -0.0081 -0.0158 0.008
                        }
                      }
                    }
                  }
                }
              }
            }
          }
        }
      }
    }
  }
  JOINT lThigh
  {
    OFFSET 8.367 -8.2066 0.5982
    CHANNELS 3 Zrotation Xrotation Yrotation
    JOINT lShin
    {
      OFFSET 2.1923 -43.463 -0.4932
      CHANNELS 3 Zrotation Xrotation Yrotation
      JOINT lFoot
      {
        OFFSET 0.7333 -45.8593 -2.6451
        CHANNELS 3 Zrotation Xrotation Yrotation
        End Site
        {
          OFFSET 2.6618 -4.2699 12.3931
        }
      }
    }
  }
  JOINT rThigh
  {
    OFFSET -8.367 -8.2066 0.5982
    CHANNELS 3 Zrotation Xrotation Yrotation
    JOINT rShin
    {
      OFFSET -2.1923 -43.463 -0.4931
      CHANNELS 3 Zrotation Xrotation Yrotation
      JOINT rFoot
      {
        OFFSET -0.7333 -45.8593 -2.6451
        CHANNELS 3 Zrotation Xrotation Yrotation
        End Site
        {
          OFFSET -2.6618 -4.2699 12.3931
        }
      }
    }
  }
}
MOTION
Frames:	4
Frame Time:	0.0333333
1.17994 34.9032 -5.33592 -7.3848e-015 3.00291 -180 -0.489995 -7.96699 -0.467266 -1.06197 -15.9293 -1.01911 -1.06197 -15.9293 -1.01911 -10.5682 -16.7205 -2.98516 7.90404e-007 8.78776 -9.64025e-007 2.99337 4.23793 24.3537 24.2288 -61.7808 88.71 12.5307 74.5924 3.84807 60.7074 -2.32766 14.3633 -1.19832e-006 -2.2696e-006 3.6735e-006 4.51393e-007 -1.9883e-006 -4.45488e-006 -1.1934e-006 -8.2303e-007 -1.92819e-006 4.77083e-015 -3.97569e-015 3.18055e-015 -1.19832e-006 -2.2696e-006 3.6735e-006 4.51393e-007 -1.9883e-006 -4.45488e-006 -1.1934e-006 -8.2303e-007 -1.92819e-006 -1.19832e-006 -2.2696e-006 3.6735e-006 4.51393e-007 -1.9883e-006 -4.45488e-006 -1.1934e-006 -8.2303e-007 -1.92819e-006 4.77083e-015 -3.97569e-015 3.18055e-015 -1.19832e-006 -2.2696e-006 3.6735e-006 4.51393e-007 -1.9883e-006 -4.45488e-006 -1.1934e-006 -8.2303e-007 -1.92819e-006 -1.19832e-006 -2.2696e-006 3.6735e-006 4.51393e-007 -1.9883e-006 -4.45488e-006 -1.1934e-006 -8.2303e-007 -1.92819e-006 -5.53004 3.68856 -23.6972 -24.1709 -61.043 -90.0947 -16.5996 75.8882 -1.56921 -63.3311 -0.717199 -13.6171 1.20955e-007 -1.7305e-007 3.12939e-008 -2.52688e-006 -2.28139e-006 8.74057e-008 1.20955e-007 -1.7305e-007 3.12939e-008 -4.41391e-032 7.95139e-016 3.18055e-015 1.20955e-007 -1.7305e-007 3.12939e-008 -2.52688e-006 -2.28139e-006 8.74057e-008 1.20955e-007 -1.7305e-007 3.12938e-008 1.20955e-007 -1.7305e-007 3.12939e-008 -2.52688e-006 -2.28139e-006 8.74057e-008 1.20955e-007 -1.7305e-007 3.12938e-008 -4.41391e-032 7.95139e-016 3.18055e-015 1.20955e-007 -1.7305e-007 3.12939e-008 -2.52688e-006 -2.28139e-006 8.74057e-008 1.20955e-007 -1.7305e-007 3.12938e-008 1.20955e-007 -1.7305e-007 3.12939e-008 -2.52688e-006 -2.28139e-006 8.74057e-008 1.20955e-007 -1.7305e-007 3.12938e-008 35.729 -18.644 -47.1893 -111.232 44.3813 145.724 30.8632 49.3894 -68.8186 -33.744 -18.679 46.4725 113.722 43.8803 -147.745 -27.4266 48.7422 64.9875 
1.18277 34.113 -5.02977 -7.23759e-015 1.80302 -180 -0.489958 -7.64712 -0.463643 -1.05732 -15.2896 -1.0076 -1.05732 -15.2896 -1.0076 -10.5215 -16.7309 -2.97289 1.71496e-006 8.73977 -3.65436e-006 3.58462 2.90626 24.0484 24.2177 -61.6361 89.0914 12.6427 74.6295 3.78968 60.3922 -2.74597 13.3863 1.41731e-006 -9.01635e-007 -2.12029e-008 3.68293e-006 2.17821e-006 -8.91469e-006 1.3325e-006 3.21753e-007 -5.69046e-006 3.18055e-015 -3.18055e-015 -6.36111e-015 1.41731e-006 -9.01635e-007 -2.12029e-008 3.68293e-006 2.17821e-006 -8.91469e-006 1.3325e-006 3.21753e-007 -5.69046e-006 1.41731e-006 -9.01635e-007 -2.12029e-008 3.68293e-006 2.17821e-006 -8.91469e-006 1.3325e-006 3.21753e-007 -5.69046e-006 3.18055e-015 -3.18055e-015 -6.36111e-015 1.41731e-006 -9.01635e-007 -2.12029e-008 3.68293e-006 2.17821e-006 -8.91469e-006 1.3325e-006 3.21753e-007 -5.69046e-006 1.41731e-006 -9.01635e-007 -2.12029e-008 3.68293e-006 2.17821e-006 -8.91469e-006 1.3325e-006 3.21753e-007 -5.69046e-006 -5.84157 2.38615 -23.4813 -24.1711 -61.0461 -90.0871 -16.7299 75.935 -1.48177 -62.7969 -1.33033 -12.7706 2.78419e-006 1.92088e-006 -1.96505e-008 -1.20055e-007 1.74012e-007 -2.93829e-008 2.78419e-006 1.92088e-006 -1.96505e-008 -1.59028e-015 7.95139e-016 -3.18055e-015 2.78419e-006 1.92088e-006 -1.96505e-008 -1.20055e-007 1.74012e-007 -2.93829e-008 2.78419e-006 1.92088e-006 -1.96505e-008 2.78419e-006 1.92088e-006 -1.96505e-008 -1.20055e-007 1.74012e-007 -2.93829e-008 2.78419e-006 1.92088e-006 -1.96505e-008 -1.59028e-015 7.95139e-016 -3.18055e-015 2.78419e-006 1.92088e-006 -1.96505e-008 -1.20055e-007 1.74012e-007 -2.93829e-008 2.78419e-006 1.92088e-006 -1.96505e-008 2.78419e-006 1.92088e-006 -1.96505e-008 -1.20055e-007 1.74012e-007 -2.93829e-008 2.78419e-006 1.92088e-006 -1.96505e-008 36.4664 -20.2683 -46.5916 -112.856 44.1835 146.894 30.7674 48.9103 -69.4151 -34.4732 -20.3095 45.8814 115.352 43.6431 -148.92 -27.3368 48.2417 65.5904 
1.18566 33.3214 -4.72281 -7.09057e-015 0.603088 -180 -0.489935 -7.32714 -0.460017 -1.05283 -14.6498 -0.99618 -1.05283 -14.6498 -0.996179 -10.4751 -16.7422 -2.96071 2.28129e-006 8.69179 1.57297e-006 4.16875 1.57028 23.7568 24.2045 -61.4913 89.471 12.7547 74.6658 3.73218 60.0697 -3.15905 12.4061 1.36424e-006 2.826e-007 -5.71248e-006 1.20074e-006 -1.25057e-006 -8.85974e-008 6.3683e-006 -2.50964e-006 1.60582e-007 3.18055e-015 -1.59028e-015 3.18055e-015 1.36424e-006 2.826e-007 -5.71248e-006 1.20074e-006 -1.25057e-006 -8.85974e-008 6.3683e-006 -2.50964e-006 1.60582e-007 1.36424e-006 2.826e-007 -5.71248e-006 1.20074e-006 -1.25057e-006 -8.85974e-008 6.3683e-006 -2.50964e-006 1.60582e-007 3.18055e-015 -1.59028e-015 3.18055e-015 1.36424e-006 2.826e-007 -5.71248e-006 1.20074e-006 -1.25057e-006 -8.85974e-008 6.3683e-006 -2.50964e-006 1.60582e-007 1.36424e-006 2.826e-007 -5.71248e-006 1.20074e-006 -1.25057e-006 -8.85974e-008 6.3683e-006 -2.50964e-006 1.60582e-007 -6.14821 1.08156 -23.2726 -24.1712 -61.0492 -90.0794 -16.8605 75.9813 -1.39469 -62.2532 -1.93583 -11.9176 5.98593e-006 2.33121e-007 3.91772e-007 1.42897e-006 -2.09986e-006 3.30007e-007 2.59071e-006 -7.97233e-007 2.68093e-007 1.59028e-015 0 -6.36111e-015 5.98593e-006 2.33121e-007 3.91772e-007 1.42897e-006 -2.09986e-006 3.30007e-007 2.59071e-006 -7.97233e-007 2.68093e-007 5.98593e-006 2.33121e-007 3.91772e-007 1.42897e-006 -2.09986e-006 3.30007e-007 2.59071e-006 -7.97233e-007 2.68093e-007 1.59028e-015 0 -6.36111e-015 5.98593e-006 2.33121e-007 3.91772e-007 1.42897e-006 -2.09986e-006 3.30007e-007 2.59071e-006 -7.97233e-007 2.68093e-007 5.98593e-006 2.33121e-007 3.91772e-007 1.42897e-006 -2.09986e-006 3.30007e-007 2.59071e-006 -7.97233e-007 2.68093e-007 37.2263 -21.892 -45.9611 -114.47 43.9651 148.057 30.6662 48.4349 -70.0073 -35.2242 -21.9406 45.2571 116.971 43.3849 -150.088 -27.2411 47.7448 66.1882 
1.18862 32.5282 -4.41508 -6.94355e-015 -0.597336 -180 -0.489933 -7.00715 -0.456394 -1.04848 -14.0098 -0.984851 -1.04848 -14.0098 -0.984851 -10.4292 -16.7548 -2.94864 -9.84296e-007 8.64379 -6.37533e-007 4.74621 0.230653 23.4788 24.1895 -61.3466 89.849 12.8696 74.7033 3.67247 59.7399 -3.56668 11.4229 -4.43418e-007 -7.15744e-007 -1.41425e-007 5.10355e-007 -8.00551e-007 1.33386e-006 8.9342e-007 -1.3102e-007 -1.3513e-006 4.77083e-015 7.95139e-016 -6.36111e-015 -4.43418e-007 -7.15744e-007 -1.41425e-007 5.10355e-007 -8.00551e-007 1.33386e-006 8.9342e-007 -1.3102e-007 -1.3513e-006 -4.43418e-007 -7.15744e-007 -1.41425e-007 5.10355e-007 -8.00551e-007 1.33386e-006 8.9342e-007 -1.3102e-007 -1.3513e-006 4.77083e-015 7.95139e-016 -6.36111e-015 -4.43418e-007 -7.15744e-007 -1.41425e-007 5.10355e-007 -8.00551e-007 1.33386e-006 8.9342e-007 -1.3102e-007 -1.3513e-006 -4.43418e-007 -7.15744e-007 -1.41425e-007 5.10355e-007 -8.00551e-007 1.33386e-006 8.9342e-007 -1.3102e-007 -1.3513e-006 -6.45019 -0.22471 -23.0707 -24.1714 -61.0523 -90.0719 -16.9915 76.027 -1.30781 -61.7001 -2.53336 -11.0582 1.71519e-006 7.03568e-007 -1.91015e-006 8.67508e-007 -3.01831e-007 -1.79367e-006 2.11172e-006 1.41642e-006 -5.47941e-009 7.95139e-016 7.95139e-016 6.36111e-015 1.71519e-006 7.03568e-007 -1.91015e-006 8.67508e-007 -3.01831e-007 -1.79367e-006 2.11172e-006 1.41642e-006 -5.47941e-009 1.71519e-006 7.03568e-007 -1.91015e-006 8.67508e-007 -3.01831e-007 -1.79367e-006 2.11172e-006 1.41642e-006 -5.47941e-009 7.95139e-016 7.95139e-016 6.36111e-015 1.71519e-006 7.03568e-007 -1.91015e-006 8.67508e-007 -3.01831e-007 -1.79367e-006 2.11172e-006 1.41642e-006 -5.47941e-009 1.71519e-006 7.03568e-007 -1.91015e-006 8.67508e-007 -3.01831e-007 -1.79367e-006 2.11172e-006 1.41642e-006 -5.47941e-009 38.0101 -23.5147 -45.2961 -116.075 43.7261 149.213 30.5596 47.9632 -70.5949 -35.9985 -23.5714 44.5979 118.579 43.1062 -151.247 -27.1397 47.2521 66.7807 
